# Blender 3.2.0
# www.blender.org
mtllib untitled.mtl
o New object
v 29.389261 -95.105721 -9.549167
v 55.901699 -80.901772 -18.163580
v 58.778526 -80.901772 -0.000015
v 30.901697 -95.105721 -0.000017
v 24.999998 -95.105721 -18.163580
v 47.552826 -80.901764 -34.549164
v 18.163561 -95.105713 -25.000015
v 34.549149 -80.901764 -47.552837
v 9.549149 -95.105713 -29.389278
v 18.163561 -80.901764 -55.901714
v -0.000001 -95.105713 -30.901714
v -0.000003 -80.901764 -58.778538
v -9.549151 -95.105713 -29.389277
v -18.163567 -80.901764 -55.901711
v -18.163561 -95.105713 -25.000017
v -34.549149 -80.901764 -47.552841
v -25.000000 -95.105721 -18.163578
v -47.552830 -80.901764 -34.549160
v -29.389259 -95.105721 -9.549167
v -55.901699 -80.901772 -18.163582
v -30.901697 -95.105721 -0.000014
v -58.778526 -80.901772 -0.000010
v -29.389261 -95.105721 9.549132
v -55.901699 -80.901772 18.163548
v -24.999996 -95.105721 18.163548
v -47.552822 -80.901779 34.549145
v -18.163555 -95.105728 24.999985
v -34.549141 -80.901779 47.552822
v -9.549153 -95.105728 29.389242
v -18.163570 -80.901779 55.901688
v 0.000000 -95.105728 30.901680
v 0.000001 -80.901779 58.778515
v 9.549153 -95.105728 29.389242
v 18.163570 -80.901779 55.901688
v 18.163557 -95.105728 24.999985
v 34.549141 -80.901779 47.552822
v 24.999996 -95.105721 18.163548
v 47.552822 -80.901779 34.549145
v 29.389261 -95.105721 9.549132
v 55.901703 -80.901772 18.163546
v 76.942085 -58.778595 -25.000011
v 80.901695 -58.778599 -0.000011
v 65.450844 -58.778591 -47.552837
v 47.552822 -58.778587 -65.450851
v 24.999996 -58.778587 -76.942093
v -0.000004 -58.778587 -80.901703
v -25.000002 -58.778587 -76.942093
v -47.552818 -58.778587 -65.450859
v -65.450851 -58.778591 -47.552830
v -76.942085 -58.778595 -25.000013
v -80.901695 -58.778599 -0.000004
v -76.942085 -58.778603 24.999985
v -65.450844 -58.778606 47.552818
v -47.552807 -58.778610 65.450851
v -25.000008 -58.778610 76.942078
v 0.000001 -58.778610 80.901688
v 25.000010 -58.778610 76.942070
v 47.552811 -58.778610 65.450851
v 65.450844 -58.778606 47.552818
v 76.942085 -58.778603 24.999983
v 90.450851 -30.901766 -29.389271
v 95.105652 -30.901772 -0.000006
v 76.942085 -30.901762 -55.901703
v 55.901699 -30.901758 -76.942101
v 29.389259 -30.901756 -90.450859
v -0.000004 -30.901756 -95.105659
v -29.389267 -30.901756 -90.450859
v -55.901695 -30.901758 -76.942101
v -76.942093 -30.901762 -55.901699
v -90.450851 -30.901766 -29.389275
v -95.105652 -30.901772 0.000002
v -90.450851 -30.901777 29.389254
v -76.942085 -30.901781 55.901703
v -55.901680 -30.901785 76.942093
v -29.389273 -30.901787 90.450836
v 0.000001 -30.901787 95.105644
v 29.389275 -30.901787 90.450836
v 55.901684 -30.901785 76.942093
v 76.942085 -30.901781 55.901703
v 90.450851 -30.901777 29.389252
v 95.105652 -0.000064 -30.901703
v 100.000000 -0.000069 -0.000001
v 80.901695 -0.000059 -58.778526
v 58.778522 -0.000055 -80.901703
v 30.901695 -0.000053 -95.105652
v -0.000004 -0.000052 -100.000000
v -30.901705 -0.000053 -95.105652
v -58.778519 -0.000055 -80.901703
v -80.901703 -0.000059 -58.778519
v -95.105652 -0.000064 -30.901705
v -100.000000 -0.000069 0.000008
v -95.105652 -0.000074 30.901695
v -80.901695 -0.000078 58.778534
v -58.778507 -0.000082 80.901711
v -30.901711 -0.000084 95.105652
v 0.000001 -0.000085 100.000000
v 30.901712 -0.000084 95.105644
v 58.778507 -0.000082 80.901711
v 80.901695 -0.000078 58.778530
v 95.105652 -0.000074 30.901693
v 90.450851 30.901640 -29.389259
v 95.105652 30.901634 0.000004
v 76.942085 30.901644 -55.901695
v 55.901699 30.901648 -76.942085
v 29.389259 30.901649 -90.450844
v -0.000004 30.901649 -95.105644
v -29.389267 30.901649 -90.450844
v -55.901695 30.901648 -76.942085
v -76.942093 30.901644 -55.901691
v -90.450851 30.901640 -29.389263
v -95.105652 30.901634 0.000012
v -90.450851 30.901628 29.389265
v -76.942085 30.901625 55.901711
v -55.901680 30.901621 76.942108
v -29.389273 30.901619 90.450851
v 0.000001 30.901619 95.105659
v 29.389275 30.901619 90.450851
v 55.901684 30.901621 76.942108
v 76.942085 30.901625 55.901711
v 90.450851 30.901628 29.389263
v 76.942085 58.778469 -24.999992
v 80.901695 58.778465 0.000008
v 65.450844 58.778473 -47.552814
v 47.552822 58.778477 -65.450836
v 24.999996 58.778477 -76.942078
v -0.000004 58.778477 -80.901688
v -25.000002 58.778477 -76.942078
v -47.552818 58.778477 -65.450844
v -65.450851 58.778473 -47.552807
v -76.942085 58.778469 -24.999994
v -80.901695 58.778465 0.000015
v -76.942085 58.778461 25.000004
v -65.450844 58.778458 47.552841
v -47.552807 58.778454 65.450867
v -25.000008 58.778454 76.942093
v 0.000001 58.778454 80.901703
v 25.000010 58.778454 76.942085
v 47.552811 58.778454 65.450867
v 65.450844 58.778458 47.552841
v 76.942085 58.778461 25.000002
v 55.901699 80.901634 -18.163553
v 58.778526 80.901634 0.000012
v 47.552826 80.901642 -34.549141
v 34.549149 80.901642 -47.552814
v 18.163561 80.901642 -55.901691
v -0.000003 80.901642 -58.778515
v -18.163567 80.901642 -55.901688
v -34.549149 80.901642 -47.552818
v -47.552830 80.901642 -34.549137
v -55.901699 80.901634 -18.163555
v -58.778526 80.901634 0.000017
v -55.901699 80.901634 18.163574
v -47.552822 80.901627 34.549168
v -34.549141 80.901627 47.552845
v -18.163570 80.901627 55.901711
v 0.000001 80.901627 58.778538
v 18.163570 80.901627 55.901711
v 34.549141 80.901627 47.552845
v 47.552822 80.901627 34.549168
v 55.901703 80.901634 18.163572
v 29.389261 95.105583 -9.549136
v 30.901697 95.105583 0.000014
v 24.999998 95.105583 -18.163549
v 18.163561 95.105591 -24.999985
v 9.549149 95.105591 -29.389248
v -0.000001 95.105591 -30.901684
v -9.549151 95.105591 -29.389246
v -18.163561 95.105591 -24.999987
v -25.000000 95.105583 -18.163548
v -29.389259 95.105583 -9.549136
v -30.901697 95.105583 0.000017
v -29.389261 95.105583 9.549163
v -24.999996 95.105583 18.163578
v -18.163555 95.105576 25.000015
v -9.549153 95.105576 29.389273
v 0.000000 95.105576 30.901711
v 9.549153 95.105576 29.389273
v 18.163557 95.105576 25.000015
v 24.999996 95.105583 18.163578
v 29.389261 95.105583 9.549163
v 0.000000 -100.000069 -0.000018
v 0.000000 99.999931 0.000015
vn 0.4528 -0.8887 -0.0717
vn 0.4085 -0.8887 -0.2081
vn 0.3242 -0.8887 -0.3242
vn 0.2081 -0.8887 -0.4085
vn 0.0717 -0.8887 -0.4528
vn -0.0717 -0.8887 -0.4528
vn -0.2081 -0.8887 -0.4085
vn -0.3242 -0.8887 -0.3242
vn -0.4085 -0.8887 -0.2081
vn -0.4528 -0.8887 -0.0717
vn -0.4528 -0.8887 0.0717
vn -0.4085 -0.8887 0.2081
vn -0.3242 -0.8887 0.3242
vn -0.2081 -0.8887 0.4085
vn -0.0717 -0.8887 0.4528
vn 0.0717 -0.8887 0.4528
vn 0.2081 -0.8887 0.4085
vn 0.3242 -0.8887 0.3242
vn 0.4085 -0.8887 0.2081
vn 0.4528 -0.8887 0.0717
vn 0.7027 -0.7027 -0.1113
vn 0.6339 -0.7027 -0.3230
vn 0.5031 -0.7027 -0.5031
vn 0.3230 -0.7027 -0.6339
vn 0.1113 -0.7027 -0.7027
vn -0.1113 -0.7027 -0.7027
vn -0.3230 -0.7027 -0.6339
vn -0.5031 -0.7027 -0.5031
vn -0.6339 -0.7027 -0.3230
vn -0.7027 -0.7027 -0.1113
vn -0.7027 -0.7027 0.1113
vn -0.6339 -0.7027 0.3230
vn -0.5031 -0.7027 0.5031
vn -0.3230 -0.7027 0.6339
vn -0.1113 -0.7027 0.7027
vn 0.1113 -0.7027 0.7027
vn 0.3230 -0.7027 0.6339
vn 0.5031 -0.7027 0.5031
vn 0.6339 -0.7027 0.3230
vn 0.7027 -0.7027 0.1113
vn 0.8823 -0.4495 -0.1397
vn 0.7959 -0.4495 -0.4055
vn 0.6316 -0.4495 -0.6316
vn 0.4055 -0.4495 -0.7959
vn 0.1397 -0.4495 -0.8823
vn -0.1397 -0.4495 -0.8823
vn -0.4055 -0.4495 -0.7959
vn -0.6316 -0.4495 -0.6316
vn -0.7959 -0.4495 -0.4055
vn -0.8823 -0.4495 -0.1397
vn -0.8823 -0.4495 0.1397
vn -0.7959 -0.4495 0.4055
vn -0.6316 -0.4495 0.6316
vn -0.4055 -0.4495 0.7959
vn -0.1397 -0.4495 0.8823
vn 0.1397 -0.4495 0.8823
vn 0.4055 -0.4495 0.7959
vn 0.6316 -0.4495 0.6316
vn 0.7959 -0.4495 0.4055
vn 0.8823 -0.4495 0.1397
vn 0.9758 -0.1546 -0.1546
vn 0.8803 -0.1546 -0.4485
vn 0.6986 -0.1546 -0.6986
vn 0.4485 -0.1546 -0.8803
vn 0.1546 -0.1546 -0.9758
vn -0.1546 -0.1546 -0.9758
vn -0.4485 -0.1546 -0.8803
vn -0.6986 -0.1546 -0.6986
vn -0.8803 -0.1546 -0.4485
vn -0.9758 -0.1546 -0.1546
vn -0.9758 -0.1546 0.1546
vn -0.8803 -0.1546 0.4485
vn -0.6986 -0.1546 0.6986
vn -0.4485 -0.1546 0.8803
vn -0.1546 -0.1546 0.9758
vn 0.1546 -0.1546 0.9758
vn 0.4485 -0.1546 0.8803
vn 0.6986 -0.1546 0.6986
vn 0.8803 -0.1546 0.4485
vn 0.9758 -0.1546 0.1546
vn 0.9758 0.1546 -0.1546
vn 0.8803 0.1546 -0.4485
vn 0.6986 0.1546 -0.6986
vn 0.4485 0.1546 -0.8803
vn 0.1546 0.1546 -0.9758
vn -0.1546 0.1546 -0.9758
vn -0.4485 0.1546 -0.8803
vn -0.6986 0.1546 -0.6986
vn -0.8803 0.1546 -0.4485
vn -0.9758 0.1546 -0.1546
vn -0.9758 0.1546 0.1546
vn -0.8803 0.1546 0.4485
vn -0.6986 0.1546 0.6986
vn -0.4485 0.1546 0.8803
vn -0.1546 0.1546 0.9758
vn 0.1546 0.1546 0.9758
vn 0.4485 0.1546 0.8803
vn 0.6986 0.1546 0.6986
vn 0.8803 0.1546 0.4485
vn 0.9758 0.1546 0.1546
vn 0.8823 0.4495 -0.1397
vn 0.7959 0.4495 -0.4055
vn 0.6316 0.4495 -0.6316
vn 0.4055 0.4495 -0.7959
vn 0.1397 0.4495 -0.8823
vn -0.1397 0.4495 -0.8823
vn -0.4055 0.4495 -0.7959
vn -0.6316 0.4495 -0.6316
vn -0.7959 0.4495 -0.4055
vn -0.8823 0.4495 -0.1397
vn -0.8823 0.4495 0.1397
vn -0.7959 0.4495 0.4055
vn -0.6316 0.4495 0.6316
vn -0.4055 0.4495 0.7959
vn -0.1397 0.4495 0.8823
vn 0.1397 0.4495 0.8823
vn 0.4055 0.4495 0.7959
vn 0.6316 0.4495 0.6316
vn 0.7959 0.4495 0.4055
vn 0.8823 0.4495 0.1397
vn 0.7027 0.7027 -0.1113
vn 0.6339 0.7027 -0.3230
vn 0.5031 0.7027 -0.5031
vn 0.3230 0.7027 -0.6339
vn 0.1113 0.7027 -0.7027
vn -0.1113 0.7027 -0.7027
vn -0.3230 0.7027 -0.6339
vn -0.5031 0.7027 -0.5031
vn -0.6339 0.7027 -0.3230
vn -0.7027 0.7027 -0.1113
vn -0.7027 0.7027 0.1113
vn -0.6339 0.7027 0.3230
vn -0.5031 0.7027 0.5031
vn -0.3230 0.7027 0.6339
vn -0.1113 0.7027 0.7027
vn 0.1113 0.7027 0.7027
vn 0.3230 0.7027 0.6339
vn 0.5031 0.7027 0.5031
vn 0.6339 0.7027 0.3230
vn 0.7027 0.7027 0.1113
vn 0.4528 0.8887 -0.0717
vn 0.4085 0.8887 -0.2081
vn 0.3242 0.8887 -0.3242
vn 0.2081 0.8887 -0.4085
vn 0.0717 0.8887 -0.4528
vn -0.0717 0.8887 -0.4528
vn -0.2081 0.8887 -0.4085
vn -0.3242 0.8887 -0.3242
vn -0.4085 0.8887 -0.2081
vn -0.4528 0.8887 -0.0717
vn -0.4528 0.8887 0.0717
vn -0.4085 0.8887 0.2081
vn -0.3242 0.8887 0.3242
vn -0.2081 0.8887 0.4085
vn -0.0717 0.8887 0.4528
vn 0.0717 0.8887 0.4528
vn 0.2081 0.8887 0.4085
vn 0.3242 0.8887 0.3242
vn 0.4085 0.8887 0.2081
vn 0.4528 0.8887 0.0717
vn 0.1564 -0.9874 -0.0248
vn 0.1564 0.9874 -0.0248
vn 0.1411 -0.9874 -0.0719
vn 0.1411 0.9874 -0.0719
vn 0.1120 -0.9874 -0.1120
vn 0.1120 0.9874 -0.1120
vn 0.0719 -0.9874 -0.1411
vn 0.0719 0.9874 -0.1411
vn 0.0248 -0.9874 -0.1564
vn 0.0248 0.9874 -0.1564
vn -0.0248 -0.9874 -0.1564
vn -0.0248 0.9874 -0.1564
vn -0.0719 -0.9874 -0.1411
vn -0.0719 0.9874 -0.1411
vn -0.1120 -0.9874 -0.1120
vn -0.1120 0.9874 -0.1120
vn -0.1411 -0.9874 -0.0719
vn -0.1411 0.9874 -0.0719
vn -0.1564 -0.9874 -0.0248
vn -0.1564 0.9874 -0.0248
vn -0.1564 -0.9874 0.0248
vn -0.1564 0.9874 0.0248
vn -0.1411 -0.9874 0.0719
vn -0.1411 0.9874 0.0719
vn -0.1120 -0.9874 0.1120
vn -0.1120 0.9874 0.1120
vn -0.0719 -0.9874 0.1411
vn -0.0719 0.9874 0.1411
vn -0.0248 -0.9874 0.1564
vn -0.0248 0.9874 0.1564
vn 0.0248 -0.9874 0.1564
vn 0.0248 0.9874 0.1564
vn 0.0719 -0.9874 0.1411
vn 0.0719 0.9874 0.1411
vn 0.1120 -0.9874 0.1120
vn 0.1120 0.9874 0.1120
vn 0.1411 -0.9874 0.0719
vn 0.1411 0.9874 0.0719
vn 0.1564 -0.9874 0.0248
vn 0.1564 0.9874 0.0248
vt 0.050000 0.100000
vt 0.050000 0.200000
vt 0.000000 0.200000
vt 1.000000 0.200000
vt 0.000000 0.100000
vt 1.000000 0.100000
vt 0.100000 0.100000
vt 0.100000 0.200000
vt 0.150000 0.100000
vt 0.150000 0.200000
vt 0.200000 0.100000
vt 0.200000 0.200000
vt 0.250000 0.100000
vt 0.250000 0.200000
vt 0.300000 0.100000
vt 0.300000 0.200000
vt 0.350000 0.100000
vt 0.350000 0.200000
vt 0.400000 0.100000
vt 0.400000 0.200000
vt 0.450000 0.100000
vt 0.450000 0.200000
vt 0.500000 0.100000
vt 0.500000 0.200000
vt 0.550000 0.100000
vt 0.550000 0.200000
vt 0.600000 0.100000
vt 0.600000 0.200000
vt 0.650000 0.100000
vt 0.650000 0.200000
vt 0.700000 0.100000
vt 0.700000 0.200000
vt 0.750000 0.100000
vt 0.750000 0.200000
vt 0.800000 0.100000
vt 0.800000 0.200000
vt 0.850000 0.100000
vt 0.850000 0.200000
vt 0.900000 0.100000
vt 0.900000 0.200000
vt 0.950000 0.100000
vt 0.950000 0.200000
vt 0.050000 0.300000
vt 0.000000 0.300000
vt 1.000000 0.300000
vt 0.100000 0.300000
vt 0.150000 0.300000
vt 0.200000 0.300000
vt 0.250000 0.300000
vt 0.300000 0.300000
vt 0.350000 0.300000
vt 0.400000 0.300000
vt 0.450000 0.300000
vt 0.500000 0.300000
vt 0.550000 0.300000
vt 0.600000 0.300000
vt 0.650000 0.300000
vt 0.700000 0.300000
vt 0.750000 0.300000
vt 0.800000 0.300000
vt 0.850000 0.300000
vt 0.900000 0.300000
vt 0.950000 0.300000
vt 0.050000 0.400000
vt 0.000000 0.400000
vt 1.000000 0.400000
vt 0.100000 0.400000
vt 0.150000 0.400000
vt 0.200000 0.400000
vt 0.250000 0.400000
vt 0.300000 0.400000
vt 0.350000 0.400000
vt 0.400000 0.400000
vt 0.450000 0.400000
vt 0.500000 0.400000
vt 0.550000 0.400000
vt 0.600000 0.400000
vt 0.650000 0.400000
vt 0.700000 0.400000
vt 0.750000 0.400000
vt 0.800000 0.400000
vt 0.850000 0.400000
vt 0.900000 0.400000
vt 0.950000 0.400000
vt 0.050000 0.500000
vt 0.000000 0.500000
vt 1.000000 0.500000
vt 0.100000 0.500000
vt 0.150000 0.500000
vt 0.200000 0.500000
vt 0.250000 0.500000
vt 0.300000 0.500000
vt 0.350000 0.500000
vt 0.400000 0.500000
vt 0.450000 0.500000
vt 0.500000 0.500000
vt 0.550000 0.500000
vt 0.600000 0.500000
vt 0.650000 0.500000
vt 0.700000 0.500000
vt 0.750000 0.500000
vt 0.800000 0.500000
vt 0.850000 0.500000
vt 0.900000 0.500000
vt 0.950000 0.500000
vt 0.050000 0.600000
vt 0.000000 0.600000
vt 1.000000 0.600000
vt 0.100000 0.600000
vt 0.150000 0.600000
vt 0.200000 0.600000
vt 0.250000 0.600000
vt 0.300000 0.600000
vt 0.350000 0.600000
vt 0.400000 0.600000
vt 0.450000 0.600000
vt 0.500000 0.600000
vt 0.550000 0.600000
vt 0.600000 0.600000
vt 0.650000 0.600000
vt 0.700000 0.600000
vt 0.750000 0.600000
vt 0.800000 0.600000
vt 0.850000 0.600000
vt 0.900000 0.600000
vt 0.950000 0.600000
vt 0.050000 0.700000
vt 0.000000 0.700000
vt 1.000000 0.700000
vt 0.100000 0.700000
vt 0.150000 0.700000
vt 0.200000 0.700000
vt 0.250000 0.700000
vt 0.300000 0.700000
vt 0.350000 0.700000
vt 0.400000 0.700000
vt 0.450000 0.700000
vt 0.500000 0.700000
vt 0.550000 0.700000
vt 0.600000 0.700000
vt 0.650000 0.700000
vt 0.700000 0.700000
vt 0.750000 0.700000
vt 0.800000 0.700000
vt 0.850000 0.700000
vt 0.900000 0.700000
vt 0.950000 0.700000
vt 0.050000 0.800000
vt 0.000000 0.800000
vt 1.000000 0.800000
vt 0.100000 0.800000
vt 0.150000 0.800000
vt 0.200000 0.800000
vt 0.250000 0.800000
vt 0.300000 0.800000
vt 0.350000 0.800000
vt 0.400000 0.800000
vt 0.450000 0.800000
vt 0.500000 0.800000
vt 0.550000 0.800000
vt 0.600000 0.800000
vt 0.650000 0.800000
vt 0.700000 0.800000
vt 0.750000 0.800000
vt 0.800000 0.800000
vt 0.850000 0.800000
vt 0.900000 0.800000
vt 0.950000 0.800000
vt 0.050000 0.900000
vt 0.000000 0.900000
vt 1.000000 0.900000
vt 0.100000 0.900000
vt 0.150000 0.900000
vt 0.200000 0.900000
vt 0.250000 0.900000
vt 0.300000 0.900000
vt 0.350000 0.900000
vt 0.400000 0.900000
vt 0.450000 0.900000
vt 0.500000 0.900000
vt 0.550000 0.900000
vt 0.600000 0.900000
vt 0.650000 0.900000
vt 0.700000 0.900000
vt 0.750000 0.900000
vt 0.800000 0.900000
vt 0.850000 0.900000
vt 0.900000 0.900000
vt 0.950000 0.900000
vt 0.000000 0.000000
vt 0.050000 0.000000
vt 0.100000 0.000000
vt 0.150000 0.000000
vt 0.200000 0.000000
vt 0.250000 0.000000
vt 0.300000 0.000000
vt 0.350000 0.000000
vt 0.400000 0.000000
vt 0.450000 0.000000
vt 0.500000 0.000000
vt 0.550000 0.000000
vt 0.600000 0.000000
vt 0.650000 0.000000
vt 0.700000 0.000000
vt 0.750000 0.000000
vt 0.800000 0.000000
vt 0.850000 0.000000
vt 0.900000 0.000000
vt 0.950000 0.000000
vt 0.000000 1.000000
vt 0.050000 1.000000
vt 0.100000 1.000000
vt 0.150000 1.000000
vt 0.200000 1.000000
vt 0.250000 1.000000
vt 0.300000 1.000000
vt 0.350000 1.000000
vt 0.400000 1.000000
vt 0.450000 1.000000
vt 0.500000 1.000000
vt 0.550000 1.000000
vt 0.600000 1.000000
vt 0.650000 1.000000
vt 0.700000 1.000000
vt 0.750000 1.000000
vt 0.800000 1.000000
vt 0.850000 1.000000
vt 0.900000 1.000000
vt 0.950000 1.000000
s 0
usemtl Mat
f 4/5/1 1/1/1 2/2/1 3/3/1
f 1/1/2 5/7/2 6/8/2 2/2/2
f 5/7/3 7/9/3 8/10/3 6/8/3
f 7/9/4 9/11/4 10/12/4 8/10/4
f 9/11/5 11/13/5 12/14/5 10/12/5
f 11/13/6 13/15/6 14/16/6 12/14/6
f 13/15/7 15/17/7 16/18/7 14/16/7
f 15/17/8 17/19/8 18/20/8 16/18/8
f 17/19/9 19/21/9 20/22/9 18/20/9
f 19/21/10 21/23/10 22/24/10 20/22/10
f 21/23/11 23/25/11 24/26/11 22/24/11
f 23/25/12 25/27/12 26/28/12 24/26/12
f 25/27/13 27/29/13 28/30/13 26/28/13
f 27/29/14 29/31/14 30/32/14 28/30/14
f 29/31/15 31/33/15 32/34/15 30/32/15
f 31/33/16 33/35/16 34/36/16 32/34/16
f 33/35/17 35/37/17 36/38/17 34/36/17
f 35/37/18 37/39/18 38/40/18 36/38/18
f 37/39/19 39/41/19 40/42/19 38/40/19
f 39/41/20 4/6/20 3/4/20 40/42/20
f 3/3/21 2/2/21 41/43/21 42/44/21
f 2/2/22 6/8/22 43/46/22 41/43/22
f 6/8/23 8/10/23 44/47/23 43/46/23
f 8/10/24 10/12/24 45/48/24 44/47/24
f 10/12/25 12/14/25 46/49/25 45/48/25
f 12/14/26 14/16/26 47/50/26 46/49/26
f 14/16/27 16/18/27 48/51/27 47/50/27
f 16/18/28 18/20/28 49/52/28 48/51/28
f 18/20/29 20/22/29 50/53/29 49/52/29
f 20/22/30 22/24/30 51/54/30 50/53/30
f 22/24/31 24/26/31 52/55/31 51/54/31
f 24/26/32 26/28/32 53/56/32 52/55/32
f 26/28/33 28/30/33 54/57/33 53/56/33
f 28/30/34 30/32/34 55/58/34 54/57/34
f 30/32/35 32/34/35 56/59/35 55/58/35
f 32/34/36 34/36/36 57/60/36 56/59/36
f 34/36/37 36/38/37 58/61/37 57/60/37
f 36/38/38 38/40/38 59/62/38 58/61/38
f 38/40/39 40/42/39 60/63/39 59/62/39
f 40/42/40 3/4/40 42/45/40 60/63/40
f 42/44/41 41/43/41 61/64/41 62/65/41
f 41/43/42 43/46/42 63/67/42 61/64/42
f 43/46/43 44/47/43 64/68/43 63/67/43
f 44/47/44 45/48/44 65/69/44 64/68/44
f 45/48/45 46/49/45 66/70/45 65/69/45
f 46/49/46 47/50/46 67/71/46 66/70/46
f 47/50/47 48/51/47 68/72/47 67/71/47
f 48/51/48 49/52/48 69/73/48 68/72/48
f 49/52/49 50/53/49 70/74/49 69/73/49
f 50/53/50 51/54/50 71/75/50 70/74/50
f 51/54/51 52/55/51 72/76/51 71/75/51
f 52/55/52 53/56/52 73/77/52 72/76/52
f 53/56/53 54/57/53 74/78/53 73/77/53
f 54/57/54 55/58/54 75/79/54 74/78/54
f 55/58/55 56/59/55 76/80/55 75/79/55
f 56/59/56 57/60/56 77/81/56 76/80/56
f 57/60/57 58/61/57 78/82/57 77/81/57
f 58/61/58 59/62/58 79/83/58 78/82/58
f 59/62/59 60/63/59 80/84/59 79/83/59
f 60/63/60 42/45/60 62/66/60 80/84/60
f 62/65/61 61/64/61 81/85/61 82/86/61
f 61/64/62 63/67/62 83/88/62 81/85/62
f 63/67/63 64/68/63 84/89/63 83/88/63
f 64/68/64 65/69/64 85/90/64 84/89/64
f 65/69/65 66/70/65 86/91/65 85/90/65
f 66/70/66 67/71/66 87/92/66 86/91/66
f 67/71/67 68/72/67 88/93/67 87/92/67
f 68/72/68 69/73/68 89/94/68 88/93/68
f 69/73/69 70/74/69 90/95/69 89/94/69
f 70/74/70 71/75/70 91/96/70 90/95/70
f 71/75/71 72/76/71 92/97/71 91/96/71
f 72/76/72 73/77/72 93/98/72 92/97/72
f 73/77/73 74/78/73 94/99/73 93/98/73
f 74/78/74 75/79/74 95/100/74 94/99/74
f 75/79/75 76/80/75 96/101/75 95/100/75
f 76/80/76 77/81/76 97/102/76 96/101/76
f 77/81/77 78/82/77 98/103/77 97/102/77
f 78/82/78 79/83/78 99/104/78 98/103/78
f 79/83/79 80/84/79 100/105/79 99/104/79
f 80/84/80 62/66/80 82/87/80 100/105/80
f 82/86/81 81/85/81 101/106/81 102/107/81
f 81/85/82 83/88/82 103/109/82 101/106/82
f 83/88/83 84/89/83 104/110/83 103/109/83
f 84/89/84 85/90/84 105/111/84 104/110/84
f 85/90/85 86/91/85 106/112/85 105/111/85
f 86/91/86 87/92/86 107/113/86 106/112/86
f 87/92/87 88/93/87 108/114/87 107/113/87
f 88/93/88 89/94/88 109/115/88 108/114/88
f 89/94/89 90/95/89 110/116/89 109/115/89
f 90/95/90 91/96/90 111/117/90 110/116/90
f 91/96/91 92/97/91 112/118/91 111/117/91
f 92/97/92 93/98/92 113/119/92 112/118/92
f 93/98/93 94/99/93 114/120/93 113/119/93
f 94/99/94 95/100/94 115/121/94 114/120/94
f 95/100/95 96/101/95 116/122/95 115/121/95
f 96/101/96 97/102/96 117/123/96 116/122/96
f 97/102/97 98/103/97 118/124/97 117/123/97
f 98/103/98 99/104/98 119/125/98 118/124/98
f 99/104/99 100/105/99 120/126/99 119/125/99
f 100/105/100 82/87/100 102/108/100 120/126/100
f 102/107/101 101/106/101 121/127/101 122/128/101
f 101/106/102 103/109/102 123/130/102 121/127/102
f 103/109/103 104/110/103 124/131/103 123/130/103
f 104/110/104 105/111/104 125/132/104 124/131/104
f 105/111/105 106/112/105 126/133/105 125/132/105
f 106/112/106 107/113/106 127/134/106 126/133/106
f 107/113/107 108/114/107 128/135/107 127/134/107
f 108/114/108 109/115/108 129/136/108 128/135/108
f 109/115/109 110/116/109 130/137/109 129/136/109
f 110/116/110 111/117/110 131/138/110 130/137/110
f 111/117/111 112/118/111 132/139/111 131/138/111
f 112/118/112 113/119/112 133/140/112 132/139/112
f 113/119/113 114/120/113 134/141/113 133/140/113
f 114/120/114 115/121/114 135/142/114 134/141/114
f 115/121/115 116/122/115 136/143/115 135/142/115
f 116/122/116 117/123/116 137/144/116 136/143/116
f 117/123/117 118/124/117 138/145/117 137/144/117
f 118/124/118 119/125/118 139/146/118 138/145/118
f 119/125/119 120/126/119 140/147/119 139/146/119
f 120/126/120 102/108/120 122/129/120 140/147/120
f 122/128/121 121/127/121 141/148/121 142/149/121
f 121/127/122 123/130/122 143/151/122 141/148/122
f 123/130/123 124/131/123 144/152/123 143/151/123
f 124/131/124 125/132/124 145/153/124 144/152/124
f 125/132/125 126/133/125 146/154/125 145/153/125
f 126/133/126 127/134/126 147/155/126 146/154/126
f 127/134/127 128/135/127 148/156/127 147/155/127
f 128/135/128 129/136/128 149/157/128 148/156/128
f 129/136/129 130/137/129 150/158/129 149/157/129
f 130/137/130 131/138/130 151/159/130 150/158/130
f 131/138/131 132/139/131 152/160/131 151/159/131
f 132/139/132 133/140/132 153/161/132 152/160/132
f 133/140/133 134/141/133 154/162/133 153/161/133
f 134/141/134 135/142/134 155/163/134 154/162/134
f 135/142/135 136/143/135 156/164/135 155/163/135
f 136/143/136 137/144/136 157/165/136 156/164/136
f 137/144/137 138/145/137 158/166/137 157/165/137
f 138/145/138 139/146/138 159/167/138 158/166/138
f 139/146/139 140/147/139 160/168/139 159/167/139
f 140/147/140 122/129/140 142/150/140 160/168/140
f 142/149/141 141/148/141 161/169/141 162/170/141
f 141/148/142 143/151/142 163/172/142 161/169/142
f 143/151/143 144/152/143 164/173/143 163/172/143
f 144/152/144 145/153/144 165/174/144 164/173/144
f 145/153/145 146/154/145 166/175/145 165/174/145
f 146/154/146 147/155/146 167/176/146 166/175/146
f 147/155/147 148/156/147 168/177/147 167/176/147
f 148/156/148 149/157/148 169/178/148 168/177/148
f 149/157/149 150/158/149 170/179/149 169/178/149
f 150/158/150 151/159/150 171/180/150 170/179/150
f 151/159/151 152/160/151 172/181/151 171/180/151
f 152/160/152 153/161/152 173/182/152 172/181/152
f 153/161/153 154/162/153 174/183/153 173/182/153
f 154/162/154 155/163/154 175/184/154 174/183/154
f 155/163/155 156/164/155 176/185/155 175/184/155
f 156/164/156 157/165/156 177/186/156 176/185/156
f 157/165/157 158/166/157 178/187/157 177/186/157
f 158/166/158 159/167/158 179/188/158 178/187/158
f 159/167/159 160/168/159 180/189/159 179/188/159
f 160/168/160 142/150/160 162/171/160 180/189/160
f 1/1/161 4/5/161 181/190/161
f 182/210/162 162/170/162 161/169/162
f 5/7/163 1/1/163 181/191/163
f 182/211/164 161/169/164 163/172/164
f 7/9/165 5/7/165 181/192/165
f 182/212/166 163/172/166 164/173/166
f 9/11/167 7/9/167 181/193/167
f 182/213/168 164/173/168 165/174/168
f 11/13/169 9/11/169 181/194/169
f 182/214/170 165/174/170 166/175/170
f 13/15/171 11/13/171 181/195/171
f 182/215/172 166/175/172 167/176/172
f 15/17/173 13/15/173 181/196/173
f 182/216/174 167/176/174 168/177/174
f 17/19/175 15/17/175 181/197/175
f 182/217/176 168/177/176 169/178/176
f 19/21/177 17/19/177 181/198/177
f 182/218/178 169/178/178 170/179/178
f 21/23/179 19/21/179 181/199/179
f 182/219/180 170/179/180 171/180/180
f 23/25/181 21/23/181 181/200/181
f 182/220/182 171/180/182 172/181/182
f 25/27/183 23/25/183 181/201/183
f 182/221/184 172/181/184 173/182/184
f 27/29/185 25/27/185 181/202/185
f 182/222/186 173/182/186 174/183/186
f 29/31/187 27/29/187 181/203/187
f 182/223/188 174/183/188 175/184/188
f 31/33/189 29/31/189 181/204/189
f 182/224/190 175/184/190 176/185/190
f 33/35/191 31/33/191 181/205/191
f 182/225/192 176/185/192 177/186/192
f 35/37/193 33/35/193 181/206/193
f 182/226/194 177/186/194 178/187/194
f 37/39/195 35/37/195 181/207/195
f 182/227/196 178/187/196 179/188/196
f 39/41/197 37/39/197 181/208/197
f 182/228/198 179/188/198 180/189/198
f 4/6/199 39/41/199 181/209/199
f 182/229/200 180/189/200 162/171/200
