# Blender v3.2.0 OBJ File: 'Lamborghini_Gallardo.blend'
# www.blender.org
mtllib wheel.mtl
o WheelFR_Circle.002
v 0.222013 0.000000 -0.388851
v 0.222013 0.148807 -0.359251
v 0.222013 0.274959 -0.274959
v 0.222013 0.359251 -0.148807
v 0.222013 0.388851 -0.000000
v 0.222013 0.359251 0.148807
v 0.222013 0.274959 0.274959
v 0.222013 0.148807 0.359252
v 0.222013 0.000000 0.388851
v 0.222013 -0.148807 0.359252
v 0.222013 -0.274959 0.274959
v 0.222013 -0.359252 0.148807
v 0.222013 -0.388851 -0.000000
v 0.222013 -0.359252 -0.148807
v 0.222013 -0.274959 -0.274959
v 0.222013 -0.148807 -0.359251
v -0.045590 0.148807 -0.359251
v -0.045590 0.000000 -0.388851
v -0.045590 0.274959 -0.274959
v -0.045590 0.359251 -0.148807
v -0.045590 0.388851 -0.000000
v -0.045590 0.359251 0.148807
v -0.045590 0.274959 0.274959
v -0.045590 0.148807 0.359252
v -0.045590 0.000000 0.388851
v -0.045590 -0.148807 0.359252
v -0.045590 -0.274959 0.274959
v -0.045590 -0.359252 0.148807
v -0.045590 -0.388851 -0.000000
v -0.045590 -0.359252 -0.148807
v -0.045590 -0.274959 -0.274959
v -0.045590 -0.148807 -0.359251
v -0.059213 0.135824 -0.327908
v -0.059213 0.000000 -0.354925
v -0.059213 0.250970 -0.250970
v -0.059213 0.327908 -0.135824
v -0.059213 0.354925 -0.000000
v -0.059213 0.327908 0.135824
v -0.059213 0.250970 0.250970
v -0.059213 0.135824 0.327908
v -0.059213 0.000000 0.354925
v -0.059213 -0.135824 0.327908
v -0.059213 -0.250970 0.250970
v -0.059213 -0.327908 0.135824
v -0.059213 -0.354925 -0.000000
v -0.059213 -0.327908 -0.135824
v -0.059213 -0.250970 -0.250970
v -0.059213 -0.135824 -0.327908
v -0.045590 0.122841 -0.296565
v -0.045590 0.000000 -0.320999
v -0.045590 0.226981 -0.226981
v -0.045590 0.296565 -0.122841
v -0.045590 0.320999 -0.000000
v -0.045590 0.296565 0.122841
v -0.045590 0.226981 0.226981
v -0.045590 0.122841 0.296565
v -0.045590 0.000000 0.320999
v -0.045590 -0.122841 0.296565
v -0.045590 -0.226981 0.226981
v -0.045590 -0.296565 0.122841
v -0.045590 -0.320999 -0.000000
v -0.045590 -0.296565 -0.122841
v -0.045590 -0.226981 -0.226981
v -0.045590 -0.122841 -0.296565
v -0.045590 0.094293 -0.227644
v -0.045590 0.000000 -0.246400
v -0.045590 0.174231 -0.174231
v -0.045590 0.227644 -0.094293
v -0.045590 0.246400 -0.000000
v -0.045590 0.227644 0.094293
v -0.045590 0.174231 0.174231
v -0.045590 0.094293 0.227644
v -0.045590 0.000000 0.246400
v -0.045590 -0.094293 0.227644
v -0.045590 -0.174231 0.174231
v -0.045590 -0.227644 0.094293
v -0.045590 -0.246400 -0.000000
v -0.045590 -0.227644 -0.094293
v -0.045590 -0.174231 -0.174231
v -0.045590 -0.094293 -0.227644
v -0.025595 0.052320 -0.126311
v -0.025595 0.000000 -0.136717
v -0.025595 0.096674 -0.096674
v -0.025595 0.126311 -0.052320
v -0.025595 0.136718 -0.000000
v -0.025595 0.126311 0.052320
v -0.025595 0.096674 0.096674
v -0.025595 0.052320 0.126310
v -0.025595 0.000000 0.136718
v -0.025595 -0.052320 0.126310
v -0.025595 -0.096674 0.096674
v -0.025595 -0.126310 0.052320
v -0.025595 -0.136717 -0.000000
v -0.025595 -0.126310 -0.052320
v -0.025595 -0.096674 -0.096674
v -0.025595 -0.052320 -0.126311
v -0.006810 0.226981 -0.226981
v -0.006810 0.122841 -0.296565
v -0.006810 0.320999 -0.000000
v -0.006810 0.296565 -0.122841
v -0.006810 0.226981 0.226981
v -0.006810 0.296565 0.122841
v -0.006810 0.000000 0.320999
v -0.006810 0.122841 0.296565
v -0.006810 -0.226981 0.226981
v -0.006810 -0.122841 0.296565
v -0.006810 -0.320999 -0.000000
v -0.006810 -0.296565 0.122841
v -0.006810 -0.226981 -0.226981
v -0.006810 -0.296565 -0.122841
v -0.006810 0.000000 -0.320999
v -0.006810 -0.122841 -0.296565
v -0.006810 0.174231 -0.174231
v -0.006810 0.094293 -0.227644
v -0.006810 0.246400 -0.000000
v -0.006810 0.227644 -0.094293
v -0.006810 0.174231 0.174231
v -0.006810 0.227644 0.094293
v -0.006810 0.000000 0.246400
v -0.006810 0.094293 0.227644
v -0.006810 -0.174231 0.174231
v -0.006810 -0.094293 0.227644
v -0.006810 -0.246400 -0.000000
v -0.006810 -0.227644 0.094293
v -0.006810 -0.174231 -0.174231
v -0.006810 -0.227644 -0.094293
v -0.006810 0.000000 -0.246400
v -0.006810 -0.094293 -0.227644
v 0.013184 0.096674 -0.096674
v 0.013184 0.052320 -0.126311
v 0.013184 0.136718 -0.000000
v 0.013184 0.126311 -0.052320
v 0.013184 0.096674 0.096674
v 0.013184 0.126311 0.052320
v 0.013184 0.000000 0.136718
v 0.013184 0.052320 0.126310
v 0.013184 -0.096674 0.096674
v 0.013184 -0.052320 0.126310
v 0.013184 -0.136717 -0.000000
v 0.013184 -0.126310 0.052320
v 0.013184 -0.096674 -0.096674
v 0.013184 -0.126310 -0.052320
v 0.013184 0.000000 -0.136717
v 0.013184 -0.052320 -0.126311
vt 0.000000 0.000000
vt 0.000000 0.000000
vt 0.000000 0.000000
vt 0.000000 0.000000
vt 0.000000 0.000000
vt 0.000000 0.000000
vt 0.000000 0.000000
vt 0.000000 0.000000
vt 0.000000 0.000000
vt 0.000000 0.000000
vt 0.000000 0.000000
vt 0.000000 0.000000
vt 0.000000 0.000000
vt 0.000000 0.000000
vt 0.000000 0.000000
vt 0.000000 0.000000
vt 0.000000 0.000000
vt 0.000000 0.000000
vt 0.000000 0.000000
vt 0.000000 0.000000
vt 0.000000 0.000000
vt 0.000000 0.000000
vt 0.000000 0.000000
vt 0.000000 0.000000
vt 0.000000 0.000000
vt 0.000000 0.000000
vt 0.000000 0.000000
vt 0.000000 0.000000
vt 0.000000 0.000000
vt 0.000000 0.000000
vt 0.000000 0.000000
vt 0.000000 0.000000
vt 0.000000 0.000000
vt 0.000000 0.000000
vt 0.000000 0.000000
vt 0.000000 0.000000
vt 0.000000 0.000000
vt 0.000000 0.000000
vt 0.000000 0.000000
vt 0.000000 0.000000
vt 0.000000 0.000000
vt 0.000000 0.000000
vt 0.000000 0.000000
vt 0.000000 0.000000
vt 0.000000 0.000000
vt 0.000000 0.000000
vt 0.000000 0.000000
vt 0.000000 0.000000
vt 0.000000 0.000000
vt 0.000000 0.000000
vt 0.000000 0.000000
vt 0.000000 0.000000
vt 0.000000 0.000000
vt 0.000000 0.000000
vt 0.000000 0.000000
vt 0.000000 0.000000
vt 0.000000 0.000000
vt 0.000000 0.000000
vt 0.000000 0.000000
vt 0.000000 0.000000
vt 0.000000 0.000000
vt 0.000000 0.000000
vt 0.000000 0.000000
vt 0.000000 0.000000
vt 0.000000 0.000000
vt 0.000000 0.000000
vt 0.000000 0.000000
vt 0.000000 0.000000
vt 0.000000 0.000000
vt 0.000000 0.000000
vt 0.000000 0.000000
vt 0.000000 0.000000
vt 0.000000 0.000000
vt 0.000000 0.000000
vt 0.000000 0.000000
vt 0.000000 0.000000
vt 0.000000 0.000000
vt 0.000000 0.000000
vt 0.000000 0.000000
vt 0.000000 0.000000
vt 0.000000 0.000000
vt 0.000000 0.000000
vt 0.000000 0.000000
vt 0.000000 0.000000
vt 0.000000 0.000000
vt 0.000000 0.000000
vt 0.000000 0.000000
vt 0.000000 0.000000
vt 0.000000 0.000000
vt 0.000000 0.000000
vt 0.000000 0.000000
vt 0.000000 0.000000
vt 0.000000 0.000000
vt 0.000000 0.000000
vt 0.000000 0.000000
vt 0.000000 0.000000
vt 0.000000 0.000000
vt 0.000000 0.000000
vt 0.000000 0.000000
vt 0.000000 0.000000
vt 0.000000 0.000000
vt 0.000000 0.000000
vt 0.000000 0.000000
vt 0.000000 0.000000
vt 0.000000 0.000000
vt 0.000000 0.000000
vt 0.000000 0.000000
vt 0.000000 0.000000
vt 0.000000 0.000000
vt 0.000000 0.000000
vt 0.000000 0.000000
vt 0.000000 0.000000
vt 0.000000 0.000000
vt 0.000000 0.000000
vt 0.000000 0.000000
vt 0.000000 0.000000
vt 0.000000 0.000000
vt 0.000000 0.000000
vt 0.000000 0.000000
vt 0.000000 0.000000
vt 0.000000 0.000000
vt 0.000000 0.000000
vt 0.000000 0.000000
vt 0.000000 0.000000
vt 0.000000 0.000000
vt 0.000000 0.000000
vt 0.000000 0.000000
vt 0.000000 0.000000
vt 0.000000 0.000000
vt 0.000000 0.000000
vt 0.000000 0.000000
vt 0.000000 0.000000
vt 0.000000 0.000000
vt 0.000000 0.000000
vt 0.000000 0.000000
vt 0.000000 0.000000
vt 0.000000 0.000000
vt 0.000000 0.000000
vt 0.000000 0.000000
vt 0.000000 0.000000
vt 0.000000 0.000000
vt 0.000000 0.000000
vt 0.000000 0.000000
vt 0.000000 0.000000
vn 1.0000 0.0000 -0.0000
vn -0.0000 0.9808 -0.1951
vn 0.0000 -0.9808 0.1951
vn -0.0000 0.9808 0.1951
vn 0.0000 -0.9808 -0.1951
vn -0.0000 0.8315 0.5556
vn 0.0000 -0.8315 -0.5556
vn -0.0000 0.5556 0.8315
vn 0.0000 -0.5556 -0.8315
vn -0.0000 0.1951 0.9808
vn -0.0000 0.1951 -0.9808
vn 0.0000 -0.1951 -0.9808
vn 0.0000 -0.1951 0.9808
vn 0.0000 0.5556 -0.8315
vn -0.0000 -0.5556 0.8315
vn -0.0000 0.8315 -0.5556
vn 0.0000 -0.8315 0.5556
vn -0.9254 0.0739 -0.3716
vn -0.9254 0.2105 -0.3150
vn -0.9254 0.3150 -0.2105
vn -0.9254 0.3716 -0.0739
vn -0.9254 0.3716 0.0739
vn -0.9254 0.3150 0.2105
vn -0.9254 0.2105 0.3150
vn -0.9254 0.0739 0.3716
vn -0.9254 -0.0739 0.3716
vn -0.9254 -0.2105 0.3150
vn -0.9254 -0.3150 0.2105
vn -0.9254 -0.3716 0.0739
vn -0.9254 -0.3716 -0.0739
vn -0.9254 -0.3150 -0.2105
vn -0.9254 -0.2105 -0.3150
vn -0.9254 -0.0739 -0.3716
vn 0.0000 -0.3827 -0.9239
vn 0.0000 -0.7071 -0.7071
vn 0.0000 0.0000 -1.0000
vn -1.0000 -0.0000 0.0000
vn -0.9832 -0.1015 0.1519
vn -0.9832 -0.1792 0.0356
vn -0.9832 -0.1519 -0.1015
vn -0.9832 -0.0356 -0.1792
vn -0.9832 0.1015 -0.1519
vn -0.9832 0.1792 -0.0356
vn -0.9832 0.1519 0.1015
vn -0.9832 0.0356 0.1792
vn -0.9254 0.2105 0.3151
vn 0.0000 0.3827 0.9239
vn 0.0000 0.7071 0.7071
vn 0.0000 0.9239 -0.3827
vn -0.9832 -0.0356 0.1792
vn 0.0000 -1.0000 0.0000
vn -0.9832 -0.1519 0.1015
vn 0.0000 -0.9239 -0.3827
vn -0.9832 -0.1792 -0.0356
vn 0.0000 -0.7071 0.7071
vn -0.9832 -0.1015 -0.1519
vn -0.9832 0.0356 -0.1792
vn -0.9832 0.1519 -0.1015
vn 0.0000 0.9239 0.3827
vn -0.9832 0.1792 0.0356
vn -0.0000 1.0000 -0.0000
vn -0.9832 0.1015 0.1519
vn 0.0000 0.3827 -0.9239
vn 0.0000 0.0000 1.0000
vn 0.0000 -0.3827 0.9239
vn 0.0000 0.7071 -0.7071
vn 0.0000 -0.9239 0.3827
usemtl Material.007
s off
f 2/1/1 3/2/1 4/3/1 5/4/1 6/5/1 7/6/1 8/7/1 9/8/1 10/9/1 11/10/1 12/11/1 13/12/1 14/13/1 15/14/1 16/15/1 1/16/1
f 4/3/2 20/17/2 21/18/2 5/4/2
f 12/11/3 28/19/3 29/20/3 13/12/3
f 5/4/4 21/18/4 22/21/4 6/5/4
f 13/12/5 29/20/5 30/22/5 14/13/5
f 6/5/6 22/21/6 23/23/6 7/6/6
f 14/13/7 30/22/7 31/24/7 15/14/7
f 7/6/8 23/23/8 24/25/8 8/7/8
f 15/14/9 31/24/9 32/26/9 16/15/9
f 8/7/10 24/25/10 25/27/10 9/8/10
f 1/16/11 18/28/11 17/29/11 2/1/11
f 16/15/12 32/26/12 18/28/12 1/16/12
f 9/8/13 25/27/13 26/30/13 10/9/13
f 2/1/14 17/29/14 19/31/14 3/2/14
f 10/9/15 26/30/15 27/32/15 11/10/15
f 3/2/16 19/31/16 20/17/16 4/3/16
f 11/10/17 27/32/17 28/19/17 12/11/17
f 33/33/18 17/29/18 18/28/18 34/34/18
f 35/35/19 19/31/19 17/29/19 33/33/19
f 36/36/20 20/17/20 19/31/20 35/35/20
f 37/37/21 21/18/21 20/17/21 36/36/21
f 38/38/22 22/21/22 21/18/22 37/37/22
f 39/39/23 23/23/23 22/21/23 38/38/23
f 40/40/24 24/25/24 23/23/24 39/39/24
f 41/41/25 25/27/25 24/25/25 40/40/25
f 42/42/26 26/30/26 25/27/26 41/41/26
f 43/43/27 27/32/27 26/30/27 42/42/27
f 44/44/28 28/19/28 27/32/28 43/43/28
f 45/45/29 29/20/29 28/19/29 44/44/29
f 46/46/30 30/22/30 29/20/30 45/45/30
f 47/47/31 31/24/31 30/22/31 46/46/31
f 48/48/32 32/26/32 31/24/32 47/47/32
f 34/34/33 18/28/33 32/26/33 48/48/33
f 92/49/34 140/50/34 124/51/34 76/52/34
f 64/53/10 112/54/10 111/55/10 50/56/10
f 51/57/35 97/58/35 113/59/35 67/60/35
f 49/61/15 98/62/15 97/58/15 51/57/15
f 62/63/6 110/64/6 109/65/6 63/66/6
f 52/67/3 100/68/3 99/69/3 53/70/3
f 53/70/36 99/69/36 115/71/36 69/72/36
f 54/73/7 102/74/7 101/75/7 55/76/7
f 67/60/35 113/59/35 129/77/35 83/78/35
f 56/79/12 104/80/12 103/81/12 57/82/12
f 69/72/36 115/71/36 131/83/36 85/84/36
f 58/85/14 106/86/14 105/87/14 59/88/14
f 76/52/34 124/51/34 108/89/34 60/90/34
f 60/90/2 108/89/2 107/91/2 61/92/2
usemtl Material.006
f 113/59/37 97/58/37 98/62/37 114/93/37
f 115/71/37 99/69/37 100/68/37 116/94/37
f 117/95/37 101/75/37 102/74/37 118/96/37
f 119/97/37 103/81/37 104/80/37 120/98/37
f 121/99/37 105/87/37 106/86/37 122/100/37
f 123/101/37 107/91/37 108/89/37 124/51/37
f 125/102/37 109/65/37 110/64/37 126/103/37
f 127/104/37 111/55/37 112/54/37 128/105/37
f 129/77/38 113/59/38 114/93/38 130/106/38
f 131/83/39 115/71/39 116/94/39 132/107/39
f 133/108/40 117/95/40 118/96/40 134/109/40
f 135/110/41 119/97/41 120/98/41 136/111/41
f 137/112/42 121/99/42 122/100/42 138/113/42
f 139/114/43 123/101/43 124/51/43 140/50/43
f 141/115/44 125/102/44 126/103/44 142/116/44
f 143/117/45 127/104/45 128/105/45 144/118/45
usemtl Material.005
f 50/56/25 34/34/25 48/48/25 64/53/25
f 64/53/46 48/48/46 47/47/46 63/66/46
f 63/66/23 47/47/23 46/46/23 62/63/23
f 62/63/22 46/46/22 45/45/22 61/92/22
f 61/92/21 45/45/21 44/44/21 60/90/21
f 60/90/20 44/44/20 43/43/20 59/88/20
f 59/88/19 43/43/19 42/42/19 58/85/19
f 58/85/18 42/42/18 41/41/18 57/82/18
f 57/82/33 41/41/33 40/40/33 56/79/33
f 56/79/32 40/40/32 39/39/32 55/76/32
f 55/76/31 39/39/31 38/38/31 54/73/31
f 54/73/30 38/38/30 37/37/30 53/70/30
f 53/70/29 37/37/29 36/36/29 52/67/29
f 52/67/28 36/36/28 35/35/28 51/57/28
f 51/57/27 35/35/27 33/33/27 49/61/27
f 49/61/26 33/33/26 34/34/26 50/56/26
f 65/119/37 49/61/37 50/56/37 66/120/37
f 68/121/47 116/94/47 100/68/47 52/67/47
f 68/121/37 52/67/37 51/57/37 67/60/37
f 70/122/37 54/73/37 53/70/37 69/72/37
f 95/123/7 141/115/7 142/116/7 94/124/7
f 72/125/37 56/79/37 55/76/37 71/126/37
f 74/127/37 58/85/37 57/82/37 73/128/37
f 76/52/37 60/90/37 59/88/37 75/129/37
f 75/129/48 121/99/48 137/112/48 91/130/48
f 78/131/37 62/63/37 61/92/37 77/132/37
f 80/133/49 128/105/49 112/54/49 64/53/49
f 80/133/37 64/53/37 63/66/37 79/134/37
f 81/135/50 65/119/50 66/120/50 82/136/50
f 50/56/51 111/55/51 127/104/51 66/120/51
f 84/137/52 68/121/52 67/60/52 83/78/52
f 90/138/53 138/113/53 122/100/53 74/127/53
f 86/139/54 70/122/54 69/72/54 85/84/54
f 63/66/55 109/65/55 125/102/55 79/134/55
f 88/140/56 72/125/56 71/126/56 87/141/56
f 93/142/3 139/114/3 140/50/3 92/49/3
f 90/138/57 74/127/57 73/128/57 89/143/57
f 92/49/58 76/52/58 75/129/58 91/130/58
f 65/119/59 114/93/59 98/62/59 49/61/59
f 94/124/60 78/131/60 77/132/60 93/142/60
f 73/128/61 119/97/61 135/110/61 89/143/61
f 96/144/62 80/133/62 79/134/62 95/123/62
f 78/131/63 126/103/63 110/64/63 62/63/63
f 96/144/37 95/123/37 94/124/37 93/142/37 92/49/37 91/130/37 90/138/37 89/143/37 88/140/37 87/141/37 86/139/37 85/84/37 84/137/37 83/78/37 81/135/37 82/136/37
f 83/78/14 129/77/14 130/106/14 81/135/14
f 77/132/64 123/101/64 139/114/64 93/142/64
f 82/136/12 143/117/12 144/118/12 96/144/12
f 94/124/63 142/116/63 126/103/63 78/131/63
f 70/122/65 118/96/65 102/74/65 54/73/65
f 81/135/59 130/106/59 114/93/59 65/119/59
f 85/84/2 131/83/2 132/107/2 84/137/2
f 79/134/55 125/102/55 141/115/55 95/123/55
f 55/76/66 101/75/66 117/95/66 71/126/66
f 66/120/51 127/104/51 143/117/51 82/136/51
f 96/144/49 144/118/49 128/105/49 80/133/49
f 72/125/67 120/98/67 104/80/67 56/79/67
f 87/141/6 133/108/6 134/109/6 86/139/6
f 57/82/61 103/81/61 119/97/61 73/128/61
f 84/137/47 132/107/47 116/94/47 68/121/47
f 74/127/53 122/100/53 106/86/53 58/85/53
f 89/143/10 135/110/10 136/111/10 88/140/10
f 59/88/48 105/87/48 121/99/48 75/129/48
f 86/139/65 134/109/65 118/96/65 70/122/65
f 71/126/66 117/95/66 133/108/66 87/141/66
f 91/130/15 137/112/15 138/113/15 90/138/15
f 61/92/64 107/91/64 123/101/64 77/132/64
f 88/140/67 136/111/67 120/98/67 72/125/67
